<?xml version="1.0" encoding="UTF-8" standalone="no"?>
<!-- Created with Inkscape (http://www.inkscape.org/) -->

<svg
   width="210mm"
   height="297mm"
   viewBox="0 0 210 297"
   version="1.1"
   id="svg5"
   inkscape:export-filename="C:\Users\Azooka\Desktop\club icons\bitmap.png"
   inkscape:export-xdpi="96"
   inkscape:export-ydpi="96"
   inkscape:version="1.1.1 (3bf5ae0d25, 2021-09-20)"
   sodipodi:docname="club_icon.svg"
   xmlns:inkscape="http://www.inkscape.org/namespaces/inkscape"
   xmlns:sodipodi="http://sodipodi.sourceforge.net/DTD/sodipodi-0.dtd"
   xmlns="http://www.w3.org/2000/svg"
   xmlns:svg="http://www.w3.org/2000/svg">
  <sodipodi:namedview
     id="namedview7"
     pagecolor="#505050"
     bordercolor="#eeeeee"
     borderopacity="1"
     inkscape:pageshadow="0"
     inkscape:pageopacity="0"
     inkscape:pagecheckerboard="0"
     inkscape:document-units="mm"
     showgrid="false"
     inkscape:zoom="0.51906082"
     inkscape:rotation="-1"
     inkscape:cx="538.51209"
     inkscape:cy="546.11429"
     inkscape:window-width="1284"
     inkscape:window-height="1032"
     inkscape:window-x="661"
     inkscape:window-y="21"
     inkscape:window-maximized="0"
     inkscape:current-layer="layer3" />
  <defs
     id="defs2">
    <rect
       x="265.64483"
       y="388.25013"
       width="80.374589"
       height="202.97989"
       id="rect2828" />
  </defs>
  <g
     inkscape:groupmode="layer"
     id="layer4"
     inkscape:label="Layer 4"
     sodipodi:insensitive="true" />
  <g
     inkscape:groupmode="layer"
     id="layer3"
     inkscape:label="Layer 3"
     style="display:inline">
    <path
       style="display:inline;fill:#1a1a1a;stroke:#000000;stroke-width:0.379242px;stroke-linecap:butt;stroke-linejoin:miter;stroke-opacity:1"
       d="m 60.423837,124.36991 54.066833,48.22176 40.91543,-17.53518 -54.79745,-48.58708 z"
       id="path18847"
       inkscape:export-filename="C:\Users\Azooka\Desktop\club icons\path18847.png"
       inkscape:export-xdpi="96"
       inkscape:export-ydpi="96" />
    <path
       style="display:inline;fill:#333333;stroke:#000000;stroke-width:0.379242px;stroke-linecap:butt;stroke-linejoin:miter;stroke-opacity:1"
       d="m 60.423837,124.36991 0.547973,11.50746 53.88418,47.49113 -0.36532,-10.77683"
       id="path18917"
       sodipodi:nodetypes="cccc"
       inkscape:export-filename="C:\Users\Azooka\Desktop\club icons\path18847.png"
       inkscape:export-xdpi="96"
       inkscape:export-ydpi="96" />
    <path
       style="display:inline;fill:#333333;stroke:#000000;stroke-width:0.379242px;stroke-linecap:butt;stroke-linejoin:miter;stroke-opacity:1"
       d="m 114.49067,172.59167 0.36532,10.77683 39.63682,-17.35252 0.91329,-10.95949"
       id="path19309"
       sodipodi:nodetypes="cccc"
       inkscape:export-filename="C:\Users\Azooka\Desktop\club icons\path18847.png"
       inkscape:export-xdpi="96"
       inkscape:export-ydpi="96" />
    <path
       style="display:inline;fill:#999999;stroke:#000000;stroke-width:0.379242px;stroke-linecap:butt;stroke-linejoin:miter;stroke-opacity:1"
       d="m 69.835467,126.25634 6.296976,5.23723 -7.671651,3.47051 1.461266,15.16063 -6.393035,-5.66241 -0.913279,-15.34327 z"
       id="path19780"
       sodipodi:nodetypes="ccccccc"
       inkscape:export-filename="C:\Users\Azooka\Desktop\club icons\path18847.png"
       inkscape:export-xdpi="96"
       inkscape:export-ydpi="96" />
    <path
       style="display:inline;fill:#999999;stroke:#000000;stroke-width:0.379242px;stroke-linecap:butt;stroke-linejoin:miter;stroke-opacity:1"
       d="m 86.422656,140.27291 5.525686,5.99508 -6.269934,3.48281 0.05954,15.14832 -6.39304,-5.6624 -0.147583,-15.464 z"
       id="path19780-8"
       sodipodi:nodetypes="ccccccc"
       inkscape:export-filename="C:\Users\Azooka\Desktop\club icons\path18847.png"
       inkscape:export-xdpi="96"
       inkscape:export-ydpi="96" />
    <path
       style="display:inline;fill:#999999;stroke:#000000;stroke-width:0.379242px;stroke-linecap:butt;stroke-linejoin:miter;stroke-opacity:1"
       d="m 102.90781,156.31419 7.30633,6.39303 -5.63279,3.48842 -0.19083,14.63635 -6.779798,-5.15604 -0.91328,-15.34329 z"
       id="path19780-3"
       sodipodi:nodetypes="ccccccc"
       inkscape:export-filename="C:\Users\Azooka\Desktop\club icons\path18847.png"
       inkscape:export-xdpi="96"
       inkscape:export-ydpi="96" />
    <path
       style="display:inline;fill:#999999;stroke:#000000;stroke-width:0.379242px;stroke-linecap:butt;stroke-linejoin:miter;stroke-opacity:1"
       d="m 99.031636,113.12057 5.504144,5.22162 7.215,-5.20576 -5.84507,-5.20576 z"
       id="path21213"
       sodipodi:nodetypes="ccccc"
       inkscape:export-filename="C:\Users\Azooka\Desktop\club icons\path18847.png"
       inkscape:export-xdpi="96"
       inkscape:export-ydpi="96" />
    <path
       style="display:inline;fill:#999999;stroke:#000000;stroke-width:0.379242px;stroke-linecap:butt;stroke-linejoin:miter;stroke-opacity:1"
       d="m 117.36409,127.36152 5.50415,5.40182 7.215,-5.20576 -5.84507,-5.20574 z"
       id="path21213-5"
       sodipodi:nodetypes="ccccc"
       inkscape:export-filename="C:\Users\Azooka\Desktop\club icons\path18847.png"
       inkscape:export-xdpi="96"
       inkscape:export-ydpi="96" />
    <path
       style="display:inline;fill:#999999;stroke:#000000;stroke-width:0.379242px;stroke-linecap:butt;stroke-linejoin:miter;stroke-opacity:1"
       d="m 136.95845,144.85653 5.81953,5.80733 7.215,-5.20576 -5.84507,-5.20576 z"
       id="path21213-5-6"
       sodipodi:nodetypes="ccccc"
       inkscape:export-filename="C:\Users\Azooka\Desktop\club icons\path18847.png"
       inkscape:export-xdpi="96"
       inkscape:export-ydpi="96" />
    <path
       style="display:inline;fill:#666666;stroke:#000000;stroke-width:0.379242px;stroke-linecap:butt;stroke-linejoin:miter;stroke-opacity:1"
       d="m 111.75078,113.13643 0.0205,2.99558 -1.75979,-1.59836"
       id="path22409"
       inkscape:export-filename="C:\Users\Azooka\Desktop\club icons\path18847.png"
       inkscape:export-xdpi="96"
       inkscape:export-ydpi="96" />
    <path
       style="display:inline;fill:#666666;stroke:#000000;stroke-width:0.379242px;stroke-linecap:butt;stroke-linejoin:miter;stroke-opacity:1"
       d="m 130.08324,127.55758 -0.17065,4.65222 -2.58811,-2.42666"
       id="path22409-0"
       sodipodi:nodetypes="ccc"
       inkscape:export-filename="C:\Users\Azooka\Desktop\club icons\path18847.png"
       inkscape:export-xdpi="96"
       inkscape:export-ydpi="96" />
    <path
       style="display:inline;fill:#666666;stroke:#000000;stroke-width:0.379242px;stroke-linecap:butt;stroke-linejoin:miter;stroke-opacity:1"
       d="m 149.99298,145.4581 -0.32994,4.15839 -2.47661,-2.0125"
       id="path22409-0-3"
       sodipodi:nodetypes="ccc"
       inkscape:export-filename="C:\Users\Azooka\Desktop\club icons\path18847.png"
       inkscape:export-xdpi="96"
       inkscape:export-ydpi="96" />
  </g>
  <g
     inkscape:groupmode="layer"
     id="layer2"
     inkscape:label="Layer 2"
     style="display:inline"
     sodipodi:insensitive="true">
    <path
       id="text4748"
       style="font-size:50.8px;line-height:1.25;font-family:EVA-Matisse_Standard;-inkscape-font-specification:EVA-Matisse_Standard;word-spacing:0px;display:inline;fill:#999999;stroke-width:0.151969"
       d="m 92.246634,120.62501 c -1.790973,0.45223 -3.292119,1.11328 -4.503432,1.98326 -1.217219,0.85262 -2.155409,1.8509 -2.814199,2.99501 -0.638664,1.13902 -0.996919,2.39537 -1.074744,3.76885 -0.06362,1.35109 0.155753,2.76254 0.657786,4.23405 0.507937,1.48883 1.215925,2.79552 2.124135,3.92003 0.922426,1.10211 2.020073,1.98124 3.293119,2.63758 1.29316,0.65122 2.749926,1.04504 4.370077,1.18122 1.614252,0.11895 3.37725,-0.0633 5.28896,-0.54588 0.704314,-0.17784 1.396764,-0.3902 2.077454,-0.63726 0.70078,-0.25229 1.35265,-0.52006 1.95524,-0.80388 0.62861,-0.27157 1.20082,-0.54782 1.717,-0.82862 0.51032,-0.29806 0.95025,-0.57826 1.31968,-0.84076 0.30908,-0.24726 0.43712,-0.44899 0.38397,-0.60481 l -0.15065,-0.4414 c -0.0388,-0.17821 -0.091,-0.36239 -0.15601,-0.55281 -0.0801,-0.29943 -0.17669,-0.61351 -0.2889,-0.94245 l -0.29383,-1.05396 c -0.0979,-0.35135 -0.193,-0.69403 -0.28498,-1.02806 -0.0781,-0.35639 -0.15415,-0.67564 -0.22836,-0.95774 l -0.0267,-0.078 c -0.0591,-0.17309 -0.16921,-0.2393 -0.33025,-0.19864 -0.16102,0.0405 -0.25565,0.0835 -0.28407,0.12829 -0.0341,0.0274 -0.0569,0.0892 -0.0674,0.18606 -0.009,1.18719 -0.12572,2.19424 -0.34641,3.02088 -0.22069,0.82667 -0.53171,1.51638 -0.9333,2.06906 -0.40746,0.53536 -0.89673,0.95954 -1.46741,1.27287 -0.57065,0.31333 -1.20808,0.55897 -1.9124,0.7368 -1.026302,0.25915 -2.060072,0.30395 -3.101464,0.13451 -1.047302,-0.18686 -2.054799,-0.6094 -3.022491,-1.26762 -0.947574,-0.6633 -1.838062,-1.57582 -2.671687,-2.73796 -0.819407,-1.18453 -1.524509,-2.64243 -2.115136,-4.37361 -0.862323,-2.52753 -0.958549,-4.57163 -0.288838,-6.13217 0.689834,-1.56562 1.950102,-2.57973 3.781318,-3.04211 0.845166,-0.21342 1.656703,-0.33354 2.43426,-0.36074 0.777594,-0.0272 1.543423,0.0709 2.297189,0.29418 0.747846,0.20604 1.489649,0.55482 2.225475,1.04593 0.750054,0.4687 1.512974,1.10351 2.288834,1.90417 0.058,0.0417 0.10585,0.0858 0.14363,0.13278 0.058,0.0417 0.13724,0.05 0.23783,0.0246 0.0806,-0.0204 0.13761,-0.0453 0.17235,-0.0716 0.11476,-0.0479 0.15467,-0.12355 0.11917,-0.22748 l -0.0354,-0.10386 c -0.14647,-0.30148 -0.334,-0.65839 -0.56211,-1.07087 -0.20805,-0.41753 -0.42613,-0.83278 -0.6543,-1.24525 -0.21394,-0.43487 -0.422,-0.85237 -0.62414,-1.2526 -0.20803,-0.41754 -0.38252,-0.76844 -0.52324,-1.05255 -0.0971,-0.21995 -0.27609,-0.29696 -0.537679,-0.2309 l -0.211269,0.0532 c -0.08053,0.0204 -0.167827,0.0529 -0.262835,0.0947 l -0.271428,0.0686 c -0.241489,0.0608 -0.509061,0.1096 -0.802619,0.1461 -0.279317,0.0144 -0.518494,0.0181 -0.717331,0.0117 -0.357418,-0.0225 -0.769418,-0.0129 -1.235745,0.03 -0.472234,0.0253 -0.958367,0.0728 -1.459045,0.14285 -0.486448,0.0476 -0.964099,0.1211 -1.432869,0.22059 -0.454492,0.0771 -0.852789,0.1592 -1.194891,0.24558 z m 33.203896,14.05472 c -0.91626,0.3253 -1.78803,0.62089 -2.61549,0.88624 -0.83338,0.24795 -1.69278,0.48356 -2.57823,0.70715 l -10.8968,2.75146 c -0.22135,0.0559 -0.30241,0.17028 -0.24331,0.34349 0.0413,0.1211 0.0883,0.19404 0.14026,0.21849 0.0662,9.6e-4 0.15249,-8.5e-4 0.25914,-0.008 0.87469,-0.12687 1.48649,-0.1591 1.8356,-0.0968 0.34909,0.0623 0.58575,0.27493 0.70976,0.63847 l 5.49291,16.10024 c 0.11819,0.34622 0.0498,0.62663 -0.20489,0.84132 -0.25461,0.21471 -0.78962,0.47205 -1.60525,0.77201 -0.0945,0.0428 -0.16621,0.0892 -0.21479,0.13882 -0.0282,0.0447 -0.0251,0.11938 0.009,0.22319 0.0591,0.17312 0.19924,0.23173 0.4205,0.17585 l 9.0858,-2.29418 1.38851,-0.3506 c 0.4889,-0.10456 1.03794,-0.22457 1.64753,-0.35973 0.62972,-0.14026 1.3399,-0.30065 2.13062,-0.48142 0.81087,-0.18583 1.73941,-0.41115 2.78585,-0.67535 l 0.0302,-0.006 c 0.14078,-0.0355 0.22969,-0.0955 0.26644,-0.17997 0.0427,-0.0672 0.0515,-0.20097 0.0268,-0.40157 -0.0484,-0.26984 -0.10597,-0.63131 -0.17321,-1.08442 -0.0731,-0.47043 -0.14194,-0.9609 -0.20672,-1.47105 -0.0444,-0.51524 -0.0864,-1.02152 -0.1252,-1.51944 -0.0386,-0.49794 -0.0608,-0.91552 -0.0663,-1.25255 l -0.0178,-0.0521 c 0.015,-0.0224 0.015,-0.051 0.004,-0.0855 -0.0294,-0.0865 -0.14379,-0.13276 -0.34258,-0.13895 -0.13257,-0.005 -0.20892,-0.005 -0.22903,9.6e-4 -0.0806,0.0204 -0.13206,0.0615 -0.1545,0.12369 -0.0283,0.0447 -0.0579,0.11809 -0.089,0.21983 -0.29085,1.38966 -0.70635,2.50998 -1.24658,3.36093 -0.52011,0.84585 -1.20007,1.54404 -2.03955,2.09447 -0.25221,0.15763 -0.66114,0.33632 -1.22699,0.53562 -0.5718,0.18189 -1.16953,0.35159 -1.79334,0.5091 -0.40248,0.10163 -0.78826,0.18854 -1.15599,0.26383 -0.374,0.0568 -0.66738,0.0933 -0.8804,0.1096 -0.19291,0.0117 -0.42077,-0.0161 -0.68345,-0.0814 -0.24259,-0.0703 -0.41998,-0.27003 -0.5322,-0.59897 l -2.5604,-7.50475 0.60369,-0.15243 c 0.28172,-0.0712 0.57686,-0.13522 0.88433,-0.19493 0.30183,-0.0762 0.57674,-0.13508 0.82373,-0.17994 l 0.5131,-0.1296 c 0.27339,-0.0315 0.5517,-0.0169 0.83451,0.0433 0.30293,0.0552 0.56834,0.12902 0.79668,0.22176 0.20233,0.0805 0.43832,0.22784 0.70806,0.4418 0.28389,0.19153 0.56371,0.40291 0.83933,0.63417 0.28982,0.20885 0.55233,0.43392 0.7877,0.67535 0.24959,0.21901 0.43724,0.4161 0.56259,0.59127 0.11347,0.14056 0.24073,0.19314 0.38158,0.15758 l 0.03,-0.006 c 0.015,-0.0225 0.0416,-0.0386 0.0818,-0.0487 0.18352,-0.1028 0.25457,-0.21469 0.21324,-0.33589 l -0.0267,-0.0779 c -0.14312,-0.22714 -0.30393,-0.50634 -0.48244,-0.83735 -0.17851,-0.33099 -0.34965,-0.6731 -0.51402,-1.02649 -0.16419,-0.3534 -0.32292,-0.68934 -0.47529,-1.00814 -0.13843,-0.3411 -0.24861,-0.63311 -0.33131,-0.87549 -0.0707,-0.20773 -0.14814,-0.47022 -0.23574,-0.7866 -0.0919,-0.33401 -0.1799,-0.68783 -0.26378,-1.06151 -0.0635,-0.37881 -0.12436,-0.74884 -0.18201,-1.11032 -0.0637,-0.37882 -0.11265,-0.71452 -0.14665,-1.00676 l -0.0265,-0.0776 c -0.0413,-0.12111 -0.17143,-0.18234 -0.39042,-0.18344 -0.0459,-0.006 -0.10972,-7.1e-4 -0.1901,0.0195 -0.14095,0.0355 -0.19754,0.12529 -0.17041,0.26885 -10e-4,0.18836 -0.0353,0.44143 -0.10198,0.75905 -0.0522,0.29527 -0.12152,0.60407 -0.2081,0.92679 -0.0926,0.3054 -0.19515,0.61335 -0.30783,0.92383 -0.0985,0.28811 -0.20146,0.53037 -0.3093,0.72683 -0.14212,0.22391 -0.32342,0.42947 -0.54367,0.6167 -0.20602,0.16489 -0.43402,0.29779 -0.68381,0.39846 -0.0604,0.0154 -0.17791,0.0555 -0.35351,0.11737 l -0.57326,0.14474 -0.69424,0.17531 -0.63407,0.16011 -0.54319,0.13708 -2.71098,-7.94617 3.62203,-0.91457 c 1.32813,-0.33536 2.65974,-0.27665 3.99445,0.17607 1.32882,0.43541 2.51527,1.25457 3.55951,2.45755 0.11953,0.15786 0.2496,0.21901 0.39044,0.18344 0.0203,-0.006 0.0848,-0.0403 0.19348,-0.10538 0.11476,-0.0479 0.15451,-0.12371 0.11917,-0.22749 l -0.0354,-0.10375 c -0.16672,-0.29636 -0.36403,-0.65078 -0.5922,-1.06325 -0.23419,-0.42974 -0.47121,-0.86818 -0.71118,-1.31526 -0.21986,-0.45216 -0.43092,-0.87851 -0.63305,-1.27873 -0.18191,-0.40536 -0.33741,-0.73281 -0.46616,-0.98234 -0.0794,-0.168 -0.18804,-0.26278 -0.32643,-0.28426 -0.1242,-0.044 -0.23662,-0.053 -0.33725,-0.0274 z" />
  </g>
  <g
     inkscape:label="Layer 1"
     inkscape:groupmode="layer"
     id="layer1"
     style="display:inline"
     sodipodi:insensitive="true">
    <text
       xml:space="preserve"
       transform="scale(0.26458333)"
       id="text2826"
       style="font-size:192px;line-height:1.25;font-family:EVA-Matisse_Standard;-inkscape-font-specification:EVA-Matisse_Standard;word-spacing:0px;white-space:pre;shape-inside:url(#rect2828)" />
    <ellipse
       style="fill:#363636;fill-opacity:0.866848;stroke-width:0.237193"
       id="path31540"
       cx="72.185524"
       cy="123.67854"
       rx="2.1389737"
       ry="1.5101795" />
  </g>
</svg>
